<svg width="96" height="96" viewBox="0 0 96 96" fill="none" xmlns="http://www.w3.org/2000/svg">
  <rect width="96" height="96" rx="24" fill="#DCFCE7"/>
  <path d="M48 19C32.536 19 20 31.536 20 47C20 52.5401 21.615 57.7029 24.4051 62.0442L21 77L36.3461 73.7317C39.8471 75.6678 43.8739 76.7692 48 76.7692C63.464 76.7692 76 64.2332 76 48.7692C76 33.3052 63.464 19 48 19Z" fill="#16A34A"/>
  <path d="M59.2649 54.7351C58.7962 56.0513 56.5684 57.229 55.1474 57.4465C54.1756 57.5938 52.9455 57.7109 46.2269 54.927C37.6407 51.3719 32.1096 42.6122 31.6819 42.0471C31.2709 41.4821 28.3611 37.6051 28.3611 33.5944C28.3611 29.5837 30.4006 27.633 31.1264 26.8988C31.8522 26.1647 32.7046 25.9809 33.1885 25.9809C33.6725 25.9809 34.1564 25.9851 34.581 26.0059C35.0389 26.0268 35.6479 25.8315 36.2569 27.2952C36.8659 28.7589 38.328 32.335 38.487 32.6743C38.6461 33.0136 38.7524 33.4088 38.5141 33.974C38.2759 34.5391 38.1577 34.7909 37.6998 35.3142C37.2419 35.8376 36.7319 36.4854 36.3561 36.857C35.9804 37.2285 35.5894 37.6301 36.0122 38.3601C36.4351 39.0902 37.8918 41.4817 40.0477 43.4032C42.8185 45.8768 45.1582 46.6425 45.8882 46.9556C46.6183 47.2687 47.043 47.2227 47.4677 46.7701C47.8925 46.3176 49.2877 44.6855 49.7655 43.9968C50.2433 43.3082 50.7189 43.4254 51.4489 43.7385C52.179 44.0516 56.0799 45.9721 56.8772 46.3626C57.6746 46.7531 58.204 46.9441 58.433 47.298C58.662 47.6519 58.662 49.351 58.1933 50.6672L59.2649 54.7351Z" fill="white"/>
</svg>
